# xmcd
#
# Track frame offsets:
# 150
# 17385
# 46385
#
# Disc length: 1104 seconds
#
#
# Revision: 2
# Processed by: cddbd v1.5.1PL2 Copyright (c) Steve Scherf et al.
# Submitted via: FreeRIP 2.945 
#
DISCID=17044e03
DTITLE=Anita Ward -  - Ring My Bell
DYEAR=1900
DGENRE=
TTITLE0=Anita Ward - Ring My Bell [1990 Mega Remix 7" version]
TTITLE1=Anita Ward - Ring My Bell [1990 Mega Remix 12" version]
TTITLE2=Anita Ward - Ring My Bell [1979 Original 12" version]
EXTD=
EXTT0=
EXTT1=
EXTT2=
PLAYORDER=
